<svg width="207" height="216" viewBox="0 0 207 216" fill="none" xmlns="http://www.w3.org/2000/svg">
<path d="M46.222 91.2965C46.222 92.508 46.0703 93.5606 45.7668 94.4542C45.4634 95.3477 45.0371 96.1201 44.488 96.7713C43.9533 97.4074 43.3031 97.9299 42.5372 98.3388C41.7858 98.7326 40.9477 99.0506 40.0228 99.293C39.1125 99.5201 38.1371 99.6792 37.0967 99.77C36.0562 99.8609 34.9797 99.9063 33.867 99.9063H12.2566V68.6927H33.4769C34.3294 68.6927 35.182 68.7306 36.0346 68.8063C36.9016 68.882 37.7252 69.0259 38.5056 69.2379C39.2859 69.4348 40.0084 69.715 40.6731 70.0785C41.3523 70.4419 41.9375 70.919 42.4288 71.5096C42.9346 72.1003 43.3247 72.8121 43.5993 73.6451C43.8883 74.478 44.0328 75.4625 44.0328 76.5983C44.0328 78.6277 43.5559 80.2407 42.6022 81.4371C41.6485 82.6184 40.1457 83.406 38.0937 83.7997C39.5388 83.9057 40.7743 84.1405 41.8002 84.504C42.8406 84.8523 43.686 85.3369 44.3363 85.9579C44.9865 86.5637 45.4634 87.3133 45.7668 88.2069C46.0703 89.0853 46.222 90.1152 46.222 91.2965ZM36.1863 77.9387C36.1863 77.5449 36.1285 77.1738 36.0129 76.8255C35.8973 76.462 35.6877 76.144 35.3843 75.8714C35.0808 75.5988 34.669 75.3792 34.1488 75.2126C33.6286 75.046 32.9639 74.9627 32.1547 74.9627H20.2982V80.8238H32.1547C32.9639 80.8238 33.6286 80.748 34.1488 80.5966C34.669 80.4451 35.0808 80.2407 35.3843 79.9832C35.6877 79.7258 35.8973 79.4229 36.0129 79.0745C36.1285 78.711 36.1863 78.3324 36.1863 77.9387ZM38.0504 90.3196C38.0504 89.6078 37.9348 89.0399 37.7036 88.6158C37.4724 88.1766 37.1111 87.8434 36.6198 87.6162C36.1285 87.3739 35.4927 87.2149 34.7124 87.1392C33.932 87.0635 33 87.0256 31.9162 87.0256H20.2982V93.6363H31.9162C33 93.6363 33.932 93.5985 34.7124 93.5228C35.4927 93.447 36.1285 93.288 36.6198 93.0457C37.1111 92.8034 37.4724 92.4702 37.7036 92.0461C37.9348 91.6069 38.0504 91.0314 38.0504 90.3196Z" fill="#272727"/>
<path d="M115.504 68.6927V86.2759C115.504 87.4421 115.598 88.5022 115.785 89.4564C115.973 90.3953 116.32 91.2056 116.826 91.8871C117.332 92.5535 118.04 93.076 118.95 93.4546C119.86 93.8181 121.045 93.9998 122.505 93.9998C123.603 93.9998 124.752 93.8408 125.951 93.5228C127.165 93.2047 128.364 92.7807 129.549 92.2506C130.734 91.7205 131.861 91.1147 132.931 90.4332C134.015 89.7365 134.983 89.0171 135.835 88.275V68.6927H143.855V99.9063H135.835V95.6355C134.824 96.2413 133.747 96.8546 132.606 97.4756C131.464 98.0814 130.25 98.6342 128.964 99.1339C127.678 99.6186 126.312 100.012 124.867 100.315C123.422 100.633 121.898 100.792 120.294 100.792C118.285 100.792 116.486 100.535 114.897 100.02C113.307 99.5201 111.963 98.8083 110.865 97.8845C109.767 96.9455 108.922 95.8172 108.329 94.4996C107.751 93.1668 107.462 91.6826 107.462 90.047V68.6927H115.504Z" fill="#272727"/>
<path d="M174.145 75.3489C173.206 75.3489 172.361 75.3867 171.609 75.4625C170.872 75.5382 170.244 75.7199 169.724 76.0077C169.203 76.2954 168.806 76.7271 168.531 77.3026C168.257 77.8629 168.12 78.6353 168.12 79.6197V80.7783H190.575V87.4345H168.12V99.9063H160.078V78.9155C160.078 77.3101 160.302 75.8714 160.75 74.5992C161.212 73.327 161.978 72.2593 163.047 71.3961C164.117 70.5177 165.533 69.8513 167.296 69.3969C169.059 68.9274 171.255 68.6927 173.885 68.6927H191.637V75.3489H174.145Z" fill="#272727"/>
<path d="M20.2982 148.37H12.2566V117.156H32.4148C34.5823 117.156 36.4175 117.391 37.9203 117.861C39.4376 118.33 40.6659 118.996 41.6051 119.86C42.5589 120.723 43.2453 121.768 43.6643 122.995C44.0978 124.206 44.3146 125.562 44.3146 127.061C44.3146 128.379 44.1339 129.53 43.7727 130.514C43.4259 131.499 42.949 132.347 42.3421 133.059C41.7496 133.755 41.056 134.346 40.2613 134.83C39.4665 135.315 38.6284 135.716 37.7469 136.034L47.5009 148.37H38.0937L29.0767 136.875H20.2982V148.37ZM36.1863 127.016C36.1863 126.41 36.1068 125.895 35.9479 125.471C35.8034 125.047 35.5432 124.706 35.1675 124.449C34.7918 124.176 34.2861 123.979 33.6503 123.858C33.0289 123.737 32.2486 123.676 31.3093 123.676H20.2982V130.355H31.3093C32.2486 130.355 33.0289 130.295 33.6503 130.173C34.2861 130.052 34.7918 129.863 35.1675 129.605C35.5432 129.333 35.8034 128.985 35.9479 128.56C36.1068 128.136 36.1863 127.621 36.1863 127.016Z" fill="#272727"/>
<path d="M53.2665 148.37V117.156H61.3081V148.37H53.2665Z" fill="#272727"/>
<path d="M89.833 116.361C92.752 116.361 95.4614 116.626 97.9613 117.156C100.476 117.671 102.78 118.338 104.876 119.155V126.789C104.052 126.304 103.12 125.834 102.08 125.38C101.054 124.926 99.9338 124.524 98.7199 124.176C97.5061 123.828 96.2056 123.548 94.8184 123.335C93.4311 123.123 91.9717 123.017 90.4399 123.017C88.5325 123.017 86.8707 123.161 85.4546 123.449C84.0384 123.737 82.8246 124.123 81.8131 124.608C80.8016 125.092 79.9707 125.66 79.3204 126.311C78.6702 126.948 78.1572 127.629 77.7815 128.356C77.4058 129.083 77.1457 129.825 77.0012 130.582C76.8567 131.34 76.7844 132.074 76.7844 132.786C76.7844 133.407 76.8422 134.081 76.9578 134.808C77.0879 135.535 77.3191 136.262 77.6514 136.989C77.9982 137.716 78.4751 138.412 79.082 139.079C79.6889 139.745 80.4764 140.336 81.4446 140.851C82.4272 141.365 83.6049 141.782 84.9777 142.1C86.3505 142.403 87.9834 142.554 89.8764 142.554C90.8301 142.554 91.661 142.524 92.369 142.463C93.0771 142.403 93.7201 142.32 94.2982 142.214C94.8906 142.108 95.4397 141.979 95.9455 141.827C96.4657 141.676 97.0004 141.517 97.5495 141.35V137.579H88.5325V130.741H105.591V146.689C104.522 147.068 103.322 147.416 101.993 147.734C100.678 148.037 99.3124 148.294 97.8963 148.506C96.4946 148.733 95.0857 148.908 93.6696 149.029C92.2534 149.15 90.9168 149.211 89.6596 149.211C87.7088 149.211 85.8375 149.074 84.0457 148.802C82.2538 148.529 80.5776 148.113 79.017 147.552C77.4708 146.977 76.0547 146.25 74.7686 145.371C73.497 144.493 72.406 143.448 71.4956 142.236C70.5997 141.025 69.8988 139.639 69.3931 138.079C68.9018 136.504 68.6561 134.74 68.6561 132.786C68.6561 130.847 68.9162 129.091 69.4364 127.515C69.9566 125.94 70.6791 124.547 71.604 123.335C72.5432 122.124 73.6631 121.079 74.9637 120.2C76.2786 119.322 77.7164 118.603 79.2771 118.042C80.8522 117.467 82.5284 117.043 84.3058 116.77C86.0976 116.498 87.94 116.361 89.833 116.361Z" fill="#272727"/>
<path d="M142.764 148.37V135.353H122.303V148.37H114.261V117.156H122.303V128.515H142.764V117.156H150.806V148.37H142.764Z" fill="#272727"/>
<path d="M176.817 123.949V148.37H168.775V123.949H156.138V117.156H189.475V123.949H176.817Z" fill="#272727"/>
<path d="M78.3557 100.696L78.3283 96.8343C78.3283 93.726 82.1984 94.8545 81.6113 90.0181L80.519 71.9544C80.4831 71.145 79.4627 71.13 79.494 71.9397L79.3279 87.4072C79.2435 88.6676 77.6749 88.4589 77.7249 87.1339L77.5233 71.9223C77.5233 71.0146 76.532 71.1979 76.5228 71.9894L76.2523 87.5051C76.2206 88.4935 74.6867 88.3974 74.7188 87.4587L74.489 71.8975C74.489 71.1952 73.5443 71.1259 73.5245 71.814L73.2483 87.5265C73.1746 88.5997 71.6596 88.4553 71.7381 87.2963L71.5484 71.9418C71.5606 71.0749 70.6277 71.1203 70.5847 71.9418L69.3483 90.7759C69.3192 94.8321 72.626 93.5501 72.7012 97.0167L72.697 100.714C60.6294 98.9365 53.6912 85.7371 60.1679 75.1838C67.1011 63.8868 84.2534 64.0186 90.9679 75.4205C97.1699 85.9519 90.2092 98.8683 78.3557 100.696Z" fill="#FFFFFD"/>
<path d="M185.374 133.669H196.105V148.37H185.374V133.669Z" fill="#F2DA02"/>
</svg>
