<svg width="33" height="33" viewBox="0 0 33 33" fill="none" xmlns="http://www.w3.org/2000/svg">
<path fill-rule="evenodd" clip-rule="evenodd" d="M2.15365 3.81517C2.15365 3.16521 2.41184 2.54188 2.87143 2.08229C3.33102 1.6227 3.95436 1.36451 4.60432 1.36451H29.0337C29.3558 1.36398 29.6748 1.42699 29.9725 1.54993C30.2702 1.67287 30.5408 1.85332 30.7686 2.08095C30.9965 2.30859 31.1773 2.57894 31.3005 2.87652C31.4238 3.1741 31.4872 3.49307 31.487 3.81517V28.2445C31.4873 28.5667 31.4242 28.8857 31.3011 29.1835C31.178 29.4812 30.9974 29.7517 30.7697 29.9796C30.5419 30.2075 30.2715 30.3882 29.9738 30.5114C29.6762 30.6347 29.3571 30.698 29.035 30.6978H4.60432C4.28238 30.6978 3.96359 30.6344 3.66618 30.5112C3.36876 30.3879 3.09854 30.2073 2.87096 29.9796C2.64338 29.7519 2.46289 29.4816 2.33981 29.1841C2.21673 28.8866 2.15347 28.5678 2.15365 28.2458V3.81517ZM13.7643 12.5485H17.7363V14.5432C18.3097 13.3965 19.7763 12.3645 21.9803 12.3645C26.2057 12.3645 27.207 14.6485 27.207 18.8392V26.6018H22.931V19.7938C22.931 17.4072 22.3577 16.0605 20.9017 16.0605C18.8817 16.0605 18.0417 17.5125 18.0417 19.7938V26.6018H13.7643V12.5485ZM6.43098 26.4192H10.7083V12.3645H6.43098V26.4178V26.4192ZM11.3203 7.78051C11.3284 8.14674 11.2632 8.51089 11.1286 8.85159C10.9941 9.19229 10.7928 9.50269 10.5366 9.76455C10.2805 10.0264 9.97458 10.2345 9.63692 10.3765C9.29927 10.5186 8.93664 10.5917 8.57032 10.5917C8.204 10.5917 7.84137 10.5186 7.50371 10.3765C7.16605 10.2345 6.86017 10.0264 6.60401 9.76455C6.34785 9.50269 6.14657 9.19229 6.012 8.85159C5.87742 8.51089 5.81225 8.14674 5.82032 7.78051C5.83615 7.06164 6.13283 6.37756 6.64683 5.87475C7.16083 5.37195 7.85128 5.0904 8.57032 5.0904C9.28935 5.0904 9.9798 5.37195 10.4938 5.87475C11.0078 6.37756 11.3045 7.06164 11.3203 7.78051V7.78051Z" fill="white"/>
</svg>
